<?xml version="1.0" encoding="UTF-8" standalone="no"?>
<svg
   xmlns:dc="http://purl.org/dc/elements/1.1/"
   xmlns:cc="http://creativecommons.org/ns#"
   xmlns:rdf="http://www.w3.org/1999/02/22-rdf-syntax-ns#"
   xmlns:svg="http://www.w3.org/2000/svg"
   xmlns="http://www.w3.org/2000/svg"
   xmlns:sodipodi="http://sodipodi.sourceforge.net/DTD/sodipodi-0.dtd"
   xmlns:inkscape="http://www.inkscape.org/namespaces/inkscape"
   width="10.583326mm"
   height="10.583278mm"
   viewBox="0 0 10.583326 10.583278"
   version="1.1"
   id="svg8"
   inkscape:version="1.0.1 (3bc2e813f5, 2020-09-07)"
   sodipodi:docname="github.svg"
   inkscape:export-filename="C:\Users\Merlin\Files\Work\curation\www\github.png"
   inkscape:export-xdpi="150"
   inkscape:export-ydpi="150">
  <defs
     id="defs2">
    <pattern
       id="EMFhbasepattern"
       patternUnits="userSpaceOnUse"
       width="6"
       height="6"
       x="0"
       y="0" />
  </defs>
  <sodipodi:namedview
     id="base"
     pagecolor="#ffffff"
     bordercolor="#666666"
     borderopacity="1.0"
     inkscape:pageopacity="0.0"
     inkscape:pageshadow="2"
     inkscape:zoom="7.9195959"
     inkscape:cx="47.005166"
     inkscape:cy="27.13463"
     inkscape:document-units="mm"
     inkscape:current-layer="layer1"
     inkscape:document-rotation="0"
     showgrid="false"
     inkscape:window-width="2560"
     inkscape:window-height="1377"
     inkscape:window-x="1912"
     inkscape:window-y="-8"
     inkscape:window-maximized="1" />
  <metadata
     id="metadata5">
    <rdf:RDF>
      <cc:Work
         rdf:about="">
        <dc:format>image/svg+xml</dc:format>
        <dc:type
           rdf:resource="http://purl.org/dc/dcmitype/StillImage" />
        <dc:title />
      </cc:Work>
    </rdf:RDF>
  </metadata>
  <g
     inkscape:label="Layer 1"
     inkscape:groupmode="layer"
     id="layer1"
     transform="translate(-82.74341,-166.44897)">
    <path
       style="fill:#ffffff;fill-opacity:1;fill-rule:evenodd;stroke:none;stroke-width:0.247814"
       d="m 88.035044,166.44897 c -2.930752,0 -5.291634,2.4307 -5.291634,5.44812 0,2.34688 1.54678,4.4423 3.582038,5.11284 0.325624,0.0839 0.407042,-0.0839 0.407042,-0.25144 0,-0.0839 0,-0.4191 0,-0.922 -1.46537,0.33528 -1.791014,-0.67054 -1.791014,-0.67054 -0.244226,-0.67052 -0.569868,-0.83816 -0.569868,-0.83816 -0.48846,-0.33528 0,-0.33528 0,-0.33528 0.569868,0.0839 0.814094,0.58672 0.814094,0.58672 0.48846,0.83818 1.221146,0.58672 1.546788,0.4191 0.08145,-0.33528 0.162817,-0.58672 0.325644,-0.75436 -1.139746,-0.0839 -2.442302,-0.58672 -2.442302,-2.68216 0,-0.58672 0.244236,-1.08962 0.56987,-1.42488 -0.08145,-0.16764 -0.244226,-0.67054 0.08145,-1.4249 0,0 0.407042,-0.16764 1.465371,0.50292 0.407043,-0.0839 0.814093,-0.16764 1.302553,-0.16764 0.488462,0 0.895503,0.0839 1.302546,0.16764 1.058329,-0.67056 1.465372,-0.50292 1.465372,-0.50292 0.325642,0.75436 0.162825,1.25726 0.08145,1.4249 0.325644,0.33526 0.569879,0.83816 0.569879,1.42488 0,2.09544 -1.302564,2.59834 -2.442292,2.68216 0.162817,0.16764 0.325633,0.5029 0.325633,1.0058 0,0.75436 0,1.34108 0,1.50872 0,0.16762 0.08145,0.33526 0.407052,0.25144 2.116649,-0.67054 3.58202,-2.76596 3.58202,-5.11284 0,-3.01742 -2.360875,-5.44812 -5.291617,-5.44812 z"
       id="path13" />
  </g>
</svg>
