<?xml version="1.0" encoding="UTF-8" standalone="no"?>
<!-- Created with Inkscape (http://www.inkscape.org/) -->

<svg
   xmlns:dc="http://purl.org/dc/elements/1.1/"
   xmlns:cc="http://creativecommons.org/ns#"
   xmlns:rdf="http://www.w3.org/1999/02/22-rdf-syntax-ns#"
   xmlns:svg="http://www.w3.org/2000/svg"
   xmlns="http://www.w3.org/2000/svg"
   xmlns:sodipodi="http://sodipodi.sourceforge.net/DTD/sodipodi-0.dtd"
   xmlns:inkscape="http://www.inkscape.org/namespaces/inkscape"
   width="99.941902mm"
   height="19.999798mm"
   viewBox="0 0 99.941905 19.999798"
   version="1.1"
   id="svg8"
   inkscape:version="0.92.3 (2405546, 2018-03-11)"
   sodipodi:docname="hancock-lab-logo-2.svg">
  <defs
     id="defs2" />
  <sodipodi:namedview
     id="base"
     pagecolor="#ffffff"
     bordercolor="#666666"
     borderopacity="1.0"
     inkscape:pageopacity="0.0"
     inkscape:pageshadow="2"
     inkscape:zoom="1.4"
     inkscape:cx="155.93164"
     inkscape:cy="12.286436"
     inkscape:document-units="mm"
     inkscape:current-layer="layer1"
     showgrid="false"
     inkscape:snap-bbox="true"
     inkscape:snap-bbox-edge-midpoints="true"
     inkscape:window-width="1329"
     inkscape:window-height="710"
     inkscape:window-x="37"
     inkscape:window-y="22"
     inkscape:window-maximized="1" />
  <metadata
     id="metadata5">
    <rdf:RDF>
      <cc:Work
         rdf:about="">
        <dc:format>image/svg+xml</dc:format>
        <dc:type
           rdf:resource="http://purl.org/dc/dcmitype/StillImage" />
        <dc:title />
      </cc:Work>
    </rdf:RDF>
  </metadata>
  <g
     inkscape:label="Layer 1"
     inkscape:groupmode="layer"
     id="layer1"
     transform="translate(-7.6927208,-136.95487)">
    <path
       style="fill:#feab3c;fill-opacity:1;stroke-width:0.04003927"
       d="m 18.130127,156.91441 c -0.09906,-0.0577 -0.175493,-0.26135 -0.210153,-0.55997 -0.01631,-0.14058 -0.05258,-0.32054 -0.08058,-0.39991 -0.028,-0.0794 -0.06414,-0.305 -0.0803,-0.5014 -0.03405,-0.41386 -0.06518,-0.51632 -0.174647,-0.5749 -0.07041,-0.0377 -0.09223,-0.0186 -0.192103,0.16773 -0.08745,0.16319 -0.136749,0.21302 -0.22027,0.22267 -0.141589,0.0164 -0.252831,-0.14217 -0.218883,-0.31191 0.02934,-0.14669 -0.05957,-0.21209 -0.210376,-0.15476 -0.05535,0.0211 -0.13974,0.0285 -0.187526,0.0165 -0.09108,-0.0229 -0.23457,-0.27161 -0.204663,-0.3548 0.03028,-0.0842 -0.04733,-0.18101 -0.166041,-0.20708 -0.16054,-0.0353 -0.428357,0.0811 -0.537027,0.23339 -0.171984,0.24097 -0.616634,1.22479 -0.685766,1.51731 -0.0399,0.16885 -0.230187,0.36005 -0.358319,0.36005 -0.173061,0 -0.266684,-0.11373 -0.266684,-0.32396 0,-0.17019 0.08692,-0.60805 0.156255,-0.78713 0.122024,-0.31517 0.479907,-0.99161 0.700509,-1.32405 0.477348,-0.71933 0.601778,-0.88485 0.858349,-1.14181 0.139525,-0.13973 0.281269,-0.30873 0.314988,-0.37555 0.03372,-0.0668 0.09501,-0.15846 0.13621,-0.20363 0.122196,-0.134 0.560181,-1.01586 0.660484,-1.32986 0.05111,-0.15999 0.136404,-0.34917 0.189548,-0.42041 0.156725,-0.21008 0.355697,-0.84502 0.406358,-1.29673 0.02366,-0.21098 0.01756,-0.25195 -0.04255,-0.28559 -0.165156,-0.0924 -0.542493,0.13941 -1.147977,0.70533 -0.444865,0.41579 -0.630458,0.61737 -0.870837,0.94585 -0.07707,0.10533 -0.204934,0.28007 -0.28413,0.38831 -0.0792,0.10825 -0.20311,0.26377 -0.275364,0.34559 -0.480774,0.54448 -0.604687,0.70413 -0.768104,0.98963 -0.253469,0.44282 -0.394091,0.81098 -0.394091,1.03176 0,0.10158 -0.01802,0.19582 -0.04004,0.20943 -0.02202,0.0136 -0.04004,0.1458 -0.04004,0.29375 0,0.32161 -0.06762,0.44698 -0.241097,0.44698 -0.167441,0 -0.216333,-0.11771 -0.206177,-0.4964 0.0047,-0.17393 -0.0021,-0.3496 -0.01506,-0.39038 -0.03254,-0.10253 -0.165547,-0.093 -0.222922,0.0159 -0.02609,0.0495 -0.05885,0.0991 -0.07279,0.11011 -0.03571,0.0282 -0.282977,0.42239 -0.282977,0.45111 0,0.013 -0.07136,0.13113 -0.158575,0.26244 -0.08722,0.1313 -0.197044,0.31791 -0.244063,0.41469 -0.04702,0.0968 -0.139278,0.20684 -0.205023,0.24457 -0.202753,0.11636 -0.324235,0.0892 -0.560261,-0.1255 -0.117388,-0.10676 -0.267379,-0.21183 -0.333313,-0.23349 -0.07497,-0.0246 -0.148367,-0.0935 -0.195926,-0.18378 -0.07304,-0.1387 -0.07328,-0.15025 -0.006,-0.29195 0.03851,-0.0812 0.126674,-0.19761 0.195926,-0.2588 0.229763,-0.20302 1.427188,-1.4084 1.427188,-1.43667 0,-0.0952 -0.112799,-0.12186 -0.418055,-0.099 -0.308008,0.0231 -0.326906,0.0196 -0.415872,-0.0763 l -0.0932,-0.10051 0.119854,-0.13424 c 0.114137,-0.12784 0.136734,-0.13548 0.473575,-0.16008 0.602895,-0.044 0.794553,-0.11127 1.134485,-0.39801 0.121118,-0.10217 0.250022,-0.20175 0.286453,-0.22129 0.119952,-0.0643 0.563598,-0.46957 0.932434,-0.85168 0.78984,-0.81828 1.016011,-1.03543 1.329217,-1.27625 0.461698,-0.35497 0.559887,-0.59144 0.337802,-0.81353 l -0.117037,-0.11704 h -0.575166 c -0.520498,0 -0.590972,0.009 -0.741474,0.0901 -0.262138,0.142 -0.645519,0.42462 -0.690813,0.50925 -0.02271,0.0424 -0.09636,0.10962 -0.163677,0.14931 -0.129435,0.0763 -0.3723,0.48506 -0.420313,0.7074 -0.04643,0.21499 -0.261263,0.58475 -0.402206,0.69225 -0.277921,0.21198 -0.485265,0.002 -0.334547,-0.3386 0.04508,-0.10192 0.09568,-0.19494 0.11245,-0.20672 0.05682,-0.0399 0.273141,-0.4212 0.299991,-0.52874 0.0558,-0.22349 -0.05026,-0.29241 -0.245119,-0.15929 -0.05967,0.0408 -0.211695,0.14258 -0.33784,0.22627 -0.44151,0.2929 -0.832916,0.75384 -1.325891,1.56144 -0.154932,0.25381 -0.502941,0.64349 -0.785512,0.87957 -0.126841,0.10598 -0.206464,0.14143 -0.317635,0.14143 -0.180639,0 -0.244455,-0.0573 -0.244455,-0.21932 0,-0.13924 0.05711,-0.23477 0.311733,-0.52141 0.3981,-0.44816 0.689249,-0.80314 0.689249,-0.84035 0,-0.016 0.0501,-0.0946 0.111332,-0.17489 0.225178,-0.29509 0.258196,-0.45449 0.106219,-0.51281 -0.0355,-0.0136 -0.166533,0.022 -0.291192,0.0791 -0.12466,0.0571 -0.27154,0.11632 -0.326402,0.13154 -0.05486,0.0152 -0.210925,0.0791 -0.34681,0.14202 -0.135884,0.0629 -0.265517,0.11435 -0.288074,0.11435 -0.1401838,0 -0.7477311,0.28687 -0.9923546,0.46856 -0.2433262,0.18073 -0.3114446,0.21202 -0.4604516,0.2115 -0.2692687,-9.5e-4 -0.2926955,-0.0309 -0.2814035,-0.35949 0.00942,-0.27403 0.00481,-0.28995 -0.116676,-0.40344 -0.069564,-0.065 -0.1739249,-0.12926 -0.2319137,-0.14284 -0.057989,-0.0136 -0.1639923,-0.08 -0.2355624,-0.14758 -0.16075,-0.15181 -0.1697734,-0.29617 -0.026908,-0.43053 0.098522,-0.0926 0.1354124,-0.0983 0.8107951,-0.12421 0.8294932,-0.0318 1.277461,-0.0988 1.5166817,-0.22684 0.04758,-0.0255 0.121304,-0.0463 0.163826,-0.0463 0.04252,0 0.128735,-0.0405 0.191587,-0.0899 0.06285,-0.0494 0.258654,-0.16423 0.435117,-0.25509 0.596779,-0.30728 0.60145,-0.47671 0.02106,-0.76389 -0.186689,-0.0924 -0.438532,-0.18902 -0.55965,-0.21478 -0.121119,-0.0258 -0.274269,-0.075 -0.340334,-0.10952 -0.136645,-0.0713 -0.7667382,-0.2362 -1.1123256,-0.29105 -0.3843738,-0.061 -0.5900823,-0.21362 -0.5887301,-0.4368 0.00189,-0.31224 0.3570339,-0.36058 1.1405058,-0.15521 0.2642592,0.0693 0.6190119,0.13362 0.7883399,0.143 0.20004,0.0111 0.324462,0.037 0.355246,0.0741 0.02606,0.0314 0.06292,0.0571 0.08191,0.0571 0.019,0 0.12039,0.0518 0.225323,0.11506 0.104934,0.0633 0.243103,0.12738 0.307043,0.14245 0.06394,0.0151 0.19331,0.0804 0.287489,0.14519 0.189987,0.13071 0.315944,0.15031 0.352575,0.0549 0.07906,-0.20604 -0.51588,-0.66516 -1.462523,-1.12863 -0.188039,-0.0921 -0.331298,-0.19171 -0.371991,-0.25876 -0.061556,-0.10141 -0.061548,-0.1161 1.12e-4,-0.2102 0.137008,-0.2091 0.518862,-0.0867 1.27828,0.40963 0.399149,0.26089 0.540699,0.37312 0.921854,0.73092 0.110631,0.10385 0.27279,0.22517 0.360353,0.2696 0.15101,0.0766 0.653439,0.21281 0.998647,0.27069 0.08733,0.0146 0.20805,0.0521 0.268277,0.0832 0.187612,0.097 0.435105,0.0639 0.432252,-0.0578 -8.52e-4,-0.0362 -0.05392,-0.10183 -0.117947,-0.14587 -0.06402,-0.044 -0.347106,-0.25574 -0.629076,-0.47044 -0.496426,-0.378 -1.194791,-0.76445 -1.954086,-1.08131 -0.132129,-0.0551 -0.308413,-0.12945 -0.391741,-0.16513 -0.08333,-0.0357 -0.176891,-0.0649 -0.207917,-0.0649 -0.03103,0 -0.116,-0.0346 -0.188828,-0.0769 -0.07283,-0.0423 -0.211617,-0.0977 -0.308417,-0.12323 -0.188624,-0.0497 -0.386786,-0.17629 -0.422772,-0.27007 -0.02968,-0.0774 0.09076,-0.27431 0.197483,-0.32294 0.08614,-0.0392 0.317819,0.004 0.541427,0.10103 0.148469,0.0644 0.725572,0.2782 0.840824,0.31145 0.05505,0.0159 0.370942,0.16208 0.701972,0.32487 0.331031,0.16279 0.621924,0.29598 0.646431,0.29598 0.02451,0 0.183193,0.0995 0.352639,0.22104 0.169445,0.12157 0.35602,0.24795 0.41461,0.28084 0.18677,0.10486 0.489072,0.33289 0.714813,0.53921 0.120435,0.11007 0.237261,0.20013 0.259615,0.20013 0.02235,0 0.09208,0.0366 0.154956,0.0814 0.06287,0.0448 0.200787,0.10872 0.306476,0.14211 0.505699,0.15978 0.624642,0.17688 1.230245,0.17688 0.808151,0 0.983898,-0.0697 0.983898,-0.38992 0,-0.16608 -0.200979,-0.45696 -0.383721,-0.55536 -0.08625,-0.0464 -0.210862,-0.11329 -0.276927,-0.14856 -0.06607,-0.0353 -0.228224,-0.11189 -0.360354,-0.17027 -0.132129,-0.0584 -0.33293,-0.1669 -0.446224,-0.24116 -0.113294,-0.0743 -0.320497,-0.19056 -0.460452,-0.25845 -0.620524,-0.30098 -0.9012,-0.4524 -1.034967,-0.55835 -0.144102,-0.11413 -0.160023,-0.11801 -1.001243,-0.24388 -0.121118,-0.0181 -0.310304,-0.0495 -0.420412,-0.0698 -0.110108,-0.0202 -0.335329,-0.0584 -0.500491,-0.0847 -0.165162,-0.0263 -0.390383,-0.0731 -0.500491,-0.10391 -0.110108,-0.0308 -0.272267,-0.0645 -0.360353,-0.0748 -0.204839,-0.024 -0.628503,-0.11641 -0.680668,-0.14855 -0.02202,-0.0136 -0.163825,-0.0653 -0.315119,-0.11498 -0.151294,-0.0497 -0.331471,-0.14118 -0.400393,-0.20337 -0.120917,-0.1091 -0.123163,-0.11699 -0.06404,-0.22478 0.09146,-0.16676 0.223418,-0.22034 0.476624,-0.19353 0.119668,0.0127 0.237639,0.0397 0.262156,0.06 0.02452,0.0203 0.142819,0.0549 0.262892,0.0768 0.120074,0.0219 0.290386,0.0578 0.378472,0.0799 0.08809,0.022 0.250246,0.0606 0.360354,0.0856 0.110108,0.025 0.290284,0.071 0.400392,0.10206 0.232368,0.0656 0.463246,0.11346 0.95078,0.19707 0.192605,0.033 0.426834,0.0868 0.520511,0.11939 0.246151,0.0857 0.458057,0.0787 0.509244,-0.017 0.09596,-0.1793 0.01268,-0.32568 -0.216365,-0.38029 -0.06472,-0.0154 -0.1666,-0.0629 -0.226397,-0.10548 -0.0598,-0.0426 -0.130993,-0.0774 -0.158213,-0.0774 -0.04916,0 -0.102172,-0.0229 -0.678873,-0.29332 -0.914634,-0.42887 -1.154324,-0.5387 -1.281256,-0.5871 -0.07708,-0.0294 -0.176173,-0.0821 -0.220216,-0.11703 -0.09518,-0.0756 -0.376939,-0.21402 -0.914954,-0.44955 -0.238117,-0.10424 -0.432506,-0.21791 -0.490481,-0.28681 -0.123188,-0.1464 -0.12789,-0.35642 -0.0106,-0.4737 0.07683,-0.0768 0.116159,-0.0832 0.390382,-0.0636 0.217306,0.0155 0.391257,0.0586 0.605245,0.14977 0.569469,0.24265 1.603434,0.76764 1.752977,0.89007 0.02822,0.0231 0.163353,0.0995 0.300295,0.16972 0.136942,0.0702 0.312048,0.1607 0.389123,0.20102 0.07708,0.0403 0.176173,0.0913 0.220216,0.11324 0.04404,0.022 0.197194,0.10316 0.340334,0.18044 0.614596,0.33183 0.77652,0.40671 0.879479,0.40671 0.06,0 0.141703,0.036 0.181561,0.0801 0.03986,0.044 0.09524,0.0801 0.123079,0.0801 0.02784,0 0.104741,0.0311 0.170904,0.069 0.114884,0.0659 0.124036,0.0657 0.203441,-0.006 0.05183,-0.0469 0.08315,-0.12448 0.08315,-0.20599 0,-0.11563 -0.06828,-0.19749 -0.590579,-0.7081 -0.544157,-0.53198 -1.148695,-1.09479 -1.601587,-1.49104 -0.332874,-0.29124 -1.500752,-1.47889 -1.594605,-1.62159 -0.134014,-0.20377 -0.158198,-0.34217 -0.08051,-0.46074 0.100257,-0.15301 0.304259,-0.13571 0.58113,0.0493 0.267884,0.17899 0.558026,0.44564 1.66456,1.52976 0.903295,0.88499 1.223071,1.23189 1.623793,1.76151 0.681575,0.90081 0.959898,1.0387 0.895011,0.44343 -0.02652,-0.24327 -0.08052,-0.40323 -0.261712,-0.77515 -0.08432,-0.17308 -0.19011,-0.44584 -0.235086,-0.60612 -0.04498,-0.16029 -0.111703,-0.35142 -0.148282,-0.42474 -0.03658,-0.0733 -0.08915,-0.22399 -0.116822,-0.33481 -0.111273,-0.44557 -0.220371,-0.65619 -0.684334,-1.32111 -0.09276,-0.13294 -0.272035,-0.41287 -0.398396,-0.62208 -0.12636,-0.2092 -0.30942,-0.49733 -0.406799,-0.64029 -0.190293,-0.27935 -0.397732,-0.70218 -0.434373,-0.88538 -0.03293,-0.16465 0.01432,-0.30607 0.126911,-0.37984 0.190785,-0.125 0.427121,0.0423 0.760796,0.53867 0.277487,0.41277 0.326476,0.48346 0.450973,0.65075 0.372623,0.50069 0.543977,0.61287 0.763081,0.49957 0.06483,-0.0335 0.129341,-0.10663 0.143352,-0.16245 0.01401,-0.0558 0.04315,-0.1015 0.06475,-0.1015 0.0216,0 0.03928,-0.0288 0.03928,-0.064 0,-0.0352 0.02458,-0.12079 0.05462,-0.19018 0.03004,-0.0694 0.08824,-0.20725 0.129338,-0.30635 0.10421,-0.2513 0.331528,-0.63956 0.451247,-0.77075 0.113884,-0.12479 0.261571,-0.14257 0.396906,-0.0478 0.07526,0.0527 0.08899,0.0996 0.08899,0.30424 0,0.19821 -0.02806,0.30084 -0.155376,0.56828 -0.230599,0.4844 -0.271712,0.58693 -0.323552,0.80686 -0.02595,0.11011 -0.06595,0.27557 -0.08888,0.3677 -0.02293,0.0921 -0.03111,0.24528 -0.01817,0.34034 0.01294,0.095 0.03537,0.29423 0.04985,0.44262 0.03415,0.35002 0.08305,0.39237 0.320148,0.27718 0.356931,-0.17341 0.460431,0.0753 0.174643,0.41961 -0.182996,0.22049 -0.218886,0.32012 -0.182065,0.50537 0.01417,0.0713 0.04257,0.23035 0.0631,0.35348 0.02053,0.12312 0.05711,0.27587 0.08128,0.33945 0.02417,0.0636 0.03953,0.21088 0.03414,0.32735 -0.01312,0.28323 0.0529,0.35099 0.184689,0.18957 0.05357,-0.0656 0.128007,-0.18236 0.165417,-0.25943 0.03741,-0.0771 0.09829,-0.18518 0.135279,-0.24024 0.140356,-0.20887 0.32025,-0.52747 0.32025,-0.56717 0,-0.0227 0.02853,-0.10712 0.0634,-0.18752 0.03487,-0.0804 0.08753,-0.20244 0.117026,-0.27119 0.02949,-0.0687 0.109402,-0.29397 0.177572,-0.50049 0.06817,-0.20652 0.140825,-0.41153 0.161455,-0.45557 0.02063,-0.044 0.06454,-0.14793 0.09758,-0.23086 0.08248,-0.207 0.214511,-0.25619 0.333897,-0.12439 0.114043,0.1259 0.115274,0.28477 0.0053,0.68631 -0.04663,0.17026 -0.09946,0.36362 -0.117404,0.42968 -0.05371,0.19773 -0.226752,0.63803 -0.348733,0.88737 -0.216658,0.44287 -0.333969,0.63595 -0.814617,1.34081 -0.03979,0.0583 -0.08484,0.15744 -0.100109,0.22021 -0.01527,0.0628 -0.0521,0.14967 -0.08185,0.1931 -0.02975,0.0434 -0.05409,0.11642 -0.05409,0.16216 0,0.0457 -0.01649,0.1003 -0.03665,0.12122 -0.06244,0.0648 -0.137594,0.69707 -0.13778,1.15914 -4.1e-4,0.94426 0.126593,1.24122 0.634879,1.48482 0.201236,0.0965 0.339922,0.11501 0.471253,0.0631 0.09532,-0.0377 0.742617,-0.76025 0.774492,-0.86455 0.01391,-0.0455 0.0454,-0.1078 0.06997,-0.1384 0.149455,-0.18611 0.193288,-0.91698 0.0711,-1.18558 -0.04007,-0.0881 -0.104053,-0.18598 -0.142185,-0.21754 -0.117213,-0.097 -0.236297,-0.37432 -0.236648,-0.55108 -5.99e-4,-0.29414 0.158499,-0.37973 0.338862,-0.18231 0.124406,0.13617 0.354819,0.50154 0.354819,0.56264 0,0.0389 0.120227,0.12804 0.172614,0.12804 0.05392,0 0.188672,-0.42982 0.228444,-0.72869 0.04197,-0.31536 0.03916,-0.3611 -0.03184,-0.51926 -0.04282,-0.0954 -0.152425,-0.25729 -0.243559,-0.35977 -0.136453,-0.15344 -0.165697,-0.21502 -0.165697,-0.34893 0,-0.1853 0.09132,-0.26432 0.257327,-0.22265 0.101819,0.0256 0.223144,0.17226 0.223144,0.26982 0,0.0887 0.145479,0.19537 0.246944,0.181 0.08667,-0.0123 0.09252,-0.0291 0.08125,-0.23345 -0.0067,-0.12112 -0.0319,-0.27427 -0.05606,-0.34033 -0.05553,-0.15188 -0.147156,-0.37301 -0.204308,-0.49309 -0.09113,-0.19147 0.144055,-0.32053 0.344625,-0.18911 0.09528,0.0624 0.228168,0.0484 0.228168,-0.0241 0,-0.0204 -0.04504,-0.12597 -0.100098,-0.23462 -0.122891,-0.24251 -0.123943,-0.28395 -0.0099,-0.39106 0.08549,-0.0803 0.09461,-0.0812 0.175574,-0.017 0.04697,0.0372 0.13179,0.14277 0.188483,0.23452 0.140081,0.22667 0.171885,0.23738 0.25188,0.0847 0.07879,-0.15034 0.119054,-0.34156 0.179406,-0.85214 0.08327,-0.70449 0.214372,-0.98097 0.465158,-0.98097 0.101458,0 0.330978,0.20634 0.330978,0.29755 0,0.0672 0.171776,0.22296 0.245847,0.22296 0.08524,0 0.234624,0.1696 0.234624,0.26637 0,0.0446 -0.0811,0.24326 -0.180218,0.44155 -0.375484,0.75117 -0.167809,1.01023 0.5385,0.67174 0.336862,-0.16144 0.609958,-0.21546 0.7022,-0.1389 0.08879,0.0737 0.07244,0.28464 -0.03105,0.40085 -0.04903,0.0551 -0.224135,0.1702 -0.389119,0.25586 -0.164984,0.0857 -0.405222,0.23882 -0.533862,0.34034 -0.128639,0.10151 -0.27278,0.2061 -0.320314,0.23242 -0.15237,0.0844 -0.462606,0.42826 -0.576521,0.63909 -0.161414,0.29874 -0.452781,0.73445 -0.491141,0.73445 -0.0545,0 -0.360077,0.48316 -0.360077,0.56932 0,0.0687 0.02071,0.0772 0.150147,0.0612 0.209395,-0.0258 0.689014,-0.2235 1.342456,-0.55324 0.632648,-0.31926 0.748803,-0.39036 1.380295,-0.84495 0.388182,-0.27943 0.553708,-0.34661 0.683246,-0.27728 0.1088,0.0582 0.127303,0.17005 0.05189,0.31355 -0.06232,0.1186 -0.519898,0.56183 -0.725208,0.70248 -0.05506,0.0377 -0.199197,0.13978 -0.320315,0.22681 -0.345636,0.24834 -1.102299,0.59979 -2.089158,0.97035 -0.05897,0.0221 -0.138335,0.0746 -0.176372,0.11668 -0.03804,0.042 -0.09977,0.0764 -0.137186,0.0764 -0.03741,0 -0.111856,0.0405 -0.165426,0.0901 -0.100462,0.0929 -0.215283,0.17733 -0.47658,0.35034 -0.278715,0.18455 -0.71897,0.78665 -0.71897,0.98327 0,0.0333 -0.02841,0.10394 -0.06315,0.15695 -0.09445,0.14415 -0.05849,0.27042 0.09948,0.34928 0.09936,0.0496 0.156756,0.0572 0.211246,0.0281 0.04115,-0.022 0.141417,-0.0486 0.222817,-0.059 0.0814,-0.0104 0.165615,-0.0366 0.187145,-0.0581 0.02153,-0.0215 0.07175,-0.0391 0.111607,-0.0391 0.03985,0 0.103317,-0.036 0.141028,-0.0801 0.03771,-0.044 0.108314,-0.0801 0.156895,-0.0801 0.04858,0 0.200133,-0.0666 0.336781,-0.148 0.136648,-0.0814 0.331629,-0.16167 0.433292,-0.17839 0.689298,-0.11333 0.778662,-0.14416 1.466099,-0.50586 0.08809,-0.0463 0.268263,-0.13208 0.400393,-0.19052 0.254526,-0.11257 0.656508,-0.39137 1.021631,-0.70856 0.121468,-0.10552 0.319693,-0.24111 0.440505,-0.30131 0.120811,-0.0602 0.273676,-0.14715 0.339703,-0.19322 0.06602,-0.0461 0.174098,-0.1115 0.240163,-0.14541 0.06607,-0.0339 0.227016,-0.11784 0.357671,-0.1865 0.145065,-0.0762 0.296832,-0.12486 0.389815,-0.12486 0.132297,0 0.165636,0.0202 0.2543,0.15419 0.08853,0.13379 0.102721,0.20089 0.107191,0.50696 0.0049,0.33687 2.81e-4,0.35697 -0.103373,0.44611 -0.05969,0.0513 -0.157216,0.10314 -0.216729,0.11509 -0.403498,0.0811 -1.049959,0.3745 -1.405552,0.63794 -0.153035,0.11337 -0.366006,0.3548 -0.387095,0.43882 -0.0284,0.11313 0.131506,0.388 0.283727,0.48774 0.12654,0.0829 0.567871,0.1813 1.52083,0.33904 0.632416,0.10469 0.860845,0.22979 0.860845,0.47146 0,0.20302 -0.136988,0.30738 -0.473618,0.36082 -0.161392,0.0256 -0.310928,0.0358 -0.332303,0.0226 -0.02138,-0.0132 -0.204639,-0.0499 -0.407247,-0.0815 -0.656666,-0.10243 -0.765784,-0.12644 -0.962282,-0.21173 -0.106429,-0.0462 -0.228407,-0.084 -0.271063,-0.084 -0.04265,0 -0.189805,-0.0471 -0.327004,-0.10463 -0.231251,-0.097 -0.455483,-0.13789 -1.100282,-0.20066 -0.23783,-0.0231 -0.250246,-0.02 -0.250246,0.0628 0,0.056 0.103708,0.18634 0.290285,0.36467 0.159656,0.1526 0.302413,0.27762 0.31724,0.27781 0.01482,2e-4 0.08169,0.0464 0.148577,0.10269 0.110033,0.0926 0.822851,0.46238 1.225842,0.63593 0.527897,0.22736 0.693975,0.32062 0.755055,0.42402 0.08371,0.14171 0.08442,0.1367 -0.03617,0.25728 -0.13002,0.13002 -0.181336,0.12821 -0.651117,-0.023 -0.594908,-0.19145 -1.551001,-0.6799 -1.860382,-0.95043 -0.979253,-0.85627 -1.102576,-0.93868 -1.470587,-0.98265 -0.0991,-0.0118 -0.254043,-0.0327 -0.344324,-0.0464 -0.158122,-0.024 -0.356952,0.022 -0.626628,0.14513 -0.126009,0.0575 -0.136098,0.093 -0.04718,0.16596 0.03461,0.0284 0.09767,0.0832 0.140137,0.12169 0.04246,0.0385 0.129768,0.0701 0.194007,0.0701 0.205411,0 0.559437,0.19646 0.890787,0.49433 0.15355,0.13804 0.166035,0.16735 0.158297,0.37167 -0.0037,0.0979 -0.02977,0.13563 -0.119312,0.17272 -0.09979,0.0413 -0.132237,0.0355 -0.251523,-0.0455 -0.07532,-0.0511 -0.190431,-0.14368 -0.255794,-0.20569 -0.06536,-0.062 -0.190912,-0.16496 -0.278998,-0.22877 -0.08809,-0.0638 -0.231744,-0.18862 -0.319239,-0.27734 -0.13166,-0.13351 -0.185942,-0.16132 -0.314896,-0.16132 -0.341858,0 -0.827298,0.41199 -0.827298,0.70213 0,0.10787 0.04189,0.16885 0.245494,0.35735 0.255322,0.23638 0.85561,0.56557 1.238945,0.6794 0.108772,0.0323 0.237686,0.0867 0.286476,0.12087 0.04879,0.0342 0.122404,0.0621 0.163587,0.0621 0.16155,0 0.870161,0.27114 1.312719,0.50228 0.32137,0.16786 0.616365,0.22436 1.257198,0.2408 0.330324,0.008 0.690677,0.0348 0.800785,0.0585 0.110108,0.0237 0.268793,0.058 0.352633,0.0762 0.177238,0.0385 0.717431,0.29802 0.807175,0.38776 0.03393,0.0339 0.06139,0.13044 0.06139,0.21578 0,0.1814 -0.140204,0.32036 -0.323231,0.32036 -0.162351,0 -0.602061,-0.10768 -0.818421,-0.20042 -0.270886,-0.11612 -0.924469,-0.11538 -1.07269,0.001 -0.116807,0.0919 -0.228053,0.29258 -0.228053,0.41142 0,0.11267 0.252528,0.48263 0.538414,0.78877 0.347806,0.37245 0.542646,0.67114 0.542646,0.83186 0,0.11741 -0.167828,0.2492 -0.317338,0.2492 -0.146768,0 -0.397461,-0.18626 -0.733712,-0.54513 -0.206669,-0.22057 -0.510482,-0.6357 -0.510482,-0.69753 0,-0.0209 -0.03679,-0.0606 -0.08174,-0.0883 -0.04496,-0.0277 -0.129364,-0.13134 -0.187569,-0.23029 -0.189129,-0.3215 -0.507969,-0.61052 -0.987415,-0.89504 -0.06855,-0.0407 -0.223726,-0.15867 -0.344845,-0.26221 -0.30574,-0.26136 -0.422023,-0.33839 -0.819495,-0.54289 -0.190644,-0.0981 -0.45725,-0.25385 -0.592458,-0.34615 -0.297779,-0.20326 -0.530704,-0.248 -0.643316,-0.12356 -0.06126,0.0677 -0.07041,0.13167 -0.0564,0.39447 0.01706,0.31995 0.06045,0.46637 0.272846,0.92065 0.127603,0.27293 0.376578,0.68758 0.452952,0.75436 0.0651,0.0569 0.304807,0.36737 0.304807,0.39475 0,0.0714 0.26519,0.42174 0.447989,0.59182 0.116963,0.10882 0.275721,0.25694 0.352796,0.32916 0.07708,0.0722 0.257252,0.21894 0.400393,0.32606 0.914314,0.68419 1.467255,1.32188 1.333372,1.53773 -0.06859,0.11059 -0.244341,0.17439 -0.364512,0.13233 -0.105556,-0.037 -0.161591,-0.0797 -0.58864,-0.44904 -0.262585,-0.2271 -0.612405,-0.48047 -0.663372,-0.48047 -0.02139,0 -0.111995,0.0484 -0.20136,0.10752 l -0.16248,0.10753 0.01866,0.2228 c 0.02012,0.24018 0.07614,0.50073 0.178948,0.83232 0.05976,0.19274 0.05976,0.2198 1.7e-5,0.34507 -0.04442,0.0932 -0.09977,0.14262 -0.175841,0.15716 -0.156117,0.0299 -0.300262,-0.13681 -0.41404,-0.47871 -0.04991,-0.14998 -0.106766,-0.28981 -0.126342,-0.31073 -0.01957,-0.0209 -0.03559,-0.0966 -0.03559,-0.16818 0,-0.15704 -0.256592,-0.88241 -0.347794,-0.98318 -0.0372,-0.0411 -0.120854,-0.0718 -0.195577,-0.0718 -0.104525,0 -0.155903,0.032 -0.257594,0.16039 -0.11769,0.14859 -0.125488,0.17729 -0.106093,0.39038 0.01151,0.1265 0.03827,0.32909 0.05945,0.45021 0.113839,0.65091 0.108437,0.80504 -0.03083,0.87957 -0.04219,0.0226 -0.105873,0.0299 -0.141522,0.0162 -0.09849,-0.0378 -0.247426,-0.36475 -0.34301,-0.75303 -0.09313,-0.3783 -0.09303,-0.62481 6.63e-4,-1.62417 0.06472,-0.69029 0.01021,-1.30579 -0.143033,-1.61482 -0.03092,-0.0624 -0.05728,-0.2155 -0.0586,-0.34034 -0.0064,-0.60439 -0.284894,-1.53266 -0.520534,-1.73475 -0.153061,-0.13126 -0.336705,0.0147 -0.400504,0.31824 -0.01717,0.0817 -0.06108,0.22948 -0.09758,0.32843 -0.03651,0.099 -0.0841,0.27913 -0.105769,0.40039 -0.04163,0.23296 -0.0486,0.25884 -0.218741,0.81158 -0.09928,0.32255 -0.105881,0.3855 -0.08175,0.77994 0.03119,0.50973 0.102175,1.07969 0.148393,1.19147 0.03483,0.0842 0.04891,0.17607 0.11665,0.76075 0.02296,0.19819 0.05851,0.39639 0.07899,0.44043 0.02048,0.044 0.04632,0.14314 0.0574,0.22022 0.01109,0.0771 0.04871,0.25725 0.08359,0.40039 0.116215,0.47681 0.14098,0.69641 0.141214,1.25222 l 2.4e-4,0.55153 -0.102705,0.0391 c -0.130434,0.0496 -0.258163,0.048 -0.34812,-0.004 z"
       id="path97"
       inkscape:connector-curvature="0" />
    <text
       xml:space="preserve"
       style="font-style:normal;font-variant:normal;font-weight:normal;font-stretch:normal;font-size:13.5449028px;line-height:1.25;font-family:Helvetica;-inkscape-font-specification:'Helvetica, Normal';font-variant-ligatures:normal;font-variant-caps:normal;font-variant-numeric:normal;font-feature-settings:normal;text-align:start;letter-spacing:0px;word-spacing:0px;writing-mode:lr-tb;text-anchor:start;fill:#2c3e50;fill-opacity:1;stroke:none;stroke-width:0.3386243"
       x="29.056995"
       y="151.70345"
       id="text101"><tspan
         sodipodi:role="line"
         id="tspan99"
         x="29.056995"
         y="151.70345"
         style="font-style:normal;font-variant:normal;font-weight:normal;font-stretch:normal;font-size:13.5449028px;font-family:Helvetica;-inkscape-font-specification:'Helvetica, Normal';font-variant-ligatures:normal;font-variant-caps:normal;font-variant-numeric:normal;font-feature-settings:normal;text-align:start;writing-mode:lr-tb;text-anchor:start;fill:#2c3e50;fill-opacity:1;stroke-width:0.3386243">Hancock Lab</tspan></text>
  </g>
</svg>
