<?xml version="1.0" encoding="UTF-8" standalone="no"?>
<!-- Created with Inkscape (http://www.inkscape.org/) -->

<svg
   xmlns:dc="http://purl.org/dc/elements/1.1/"
   xmlns:cc="http://creativecommons.org/ns#"
   xmlns:rdf="http://www.w3.org/1999/02/22-rdf-syntax-ns#"
   xmlns:svg="http://www.w3.org/2000/svg"
   xmlns="http://www.w3.org/2000/svg"
   xmlns:sodipodi="http://sodipodi.sourceforge.net/DTD/sodipodi-0.dtd"
   xmlns:inkscape="http://www.inkscape.org/namespaces/inkscape"
   width="73.995659mm"
   height="14.999704mm"
   viewBox="0 0 73.995661 14.999704"
   version="1.1"
   id="svg8"
   inkscape:version="0.92.3 (2405546, 2018-03-11)"
   sodipodi:docname="hancock-lab-logo-2.svg">
  <defs
     id="defs2" />
  <sodipodi:namedview
     id="base"
     pagecolor="#ffffff"
     bordercolor="#666666"
     borderopacity="1.0"
     inkscape:pageopacity="0.0"
     inkscape:pageshadow="2"
     inkscape:zoom="1.4"
     inkscape:cx="260.89276"
     inkscape:cy="2.8354585"
     inkscape:document-units="mm"
     inkscape:current-layer="layer1"
     showgrid="false"
     inkscape:snap-bbox="true"
     inkscape:snap-bbox-edge-midpoints="true"
     inkscape:window-width="1329"
     inkscape:window-height="710"
     inkscape:window-x="37"
     inkscape:window-y="22"
     inkscape:window-maximized="1" />
  <metadata
     id="metadata5">
    <rdf:RDF>
      <cc:Work
         rdf:about="">
        <dc:format>image/svg+xml</dc:format>
        <dc:type
           rdf:resource="http://purl.org/dc/dcmitype/StillImage" />
        <dc:title />
      </cc:Work>
    </rdf:RDF>
  </metadata>
  <g
     inkscape:label="Layer 1"
     inkscape:groupmode="layer"
     id="layer1"
     transform="translate(-10.159854,-139.45439)">
    <path
       style="fill:#feab3c;fill-opacity:1;stroke-width:0.03002945"
       d="m 17.987895,154.4245 c -0.0743,-0.0433 -0.13162,-0.19601 -0.157615,-0.41998 -0.01223,-0.10543 -0.03943,-0.2404 -0.06043,-0.29993 -0.021,-0.0596 -0.0481,-0.22875 -0.06022,-0.37605 -0.02554,-0.3104 -0.04889,-0.38724 -0.130985,-0.43118 -0.05281,-0.0283 -0.06917,-0.0139 -0.144077,0.1258 -0.06559,0.12239 -0.102562,0.15977 -0.165203,0.167 -0.106191,0.0123 -0.189623,-0.10662 -0.164162,-0.23393 0.02201,-0.11002 -0.04468,-0.15907 -0.157782,-0.11607 -0.04151,0.0158 -0.104805,0.0214 -0.140644,0.0124 -0.06831,-0.0172 -0.175928,-0.20371 -0.153498,-0.2661 0.02271,-0.0632 -0.0355,-0.13576 -0.12453,-0.15531 -0.120405,-0.0265 -0.321268,0.0608 -0.402771,0.17504 -0.128988,0.18073 -0.462475,0.91859 -0.514324,1.13798 -0.02993,0.12664 -0.17264,0.27004 -0.268739,0.27004 -0.129796,0 -0.200013,-0.0853 -0.200013,-0.24297 0,-0.12764 0.06519,-0.45604 0.117191,-0.59035 0.09152,-0.23638 0.35993,-0.74371 0.525382,-0.99304 0.358011,-0.53949 0.451333,-0.66363 0.643761,-0.85635 0.104644,-0.1048 0.210952,-0.23155 0.236241,-0.28167 0.02529,-0.0501 0.07126,-0.11884 0.102158,-0.15272 0.09165,-0.1005 0.420136,-0.76189 0.495363,-0.99739 0.03833,-0.12 0.102303,-0.26188 0.142161,-0.31531 0.117544,-0.15756 0.266773,-0.63377 0.304768,-0.97255 0.01774,-0.15823 0.01317,-0.18896 -0.03191,-0.21419 -0.123867,-0.0693 -0.40687,0.10456 -0.860983,0.529 -0.333649,0.31184 -0.472843,0.46302 -0.653128,0.70938 -0.0578,0.079 -0.1537,0.21006 -0.213097,0.29124 -0.0594,0.0812 -0.152333,0.19782 -0.206523,0.25919 -0.360581,0.40836 -0.453515,0.5281 -0.576078,0.74222 -0.190102,0.33212 -0.295568,0.60824 -0.295568,0.77382 0,0.0762 -0.01351,0.14687 -0.03003,0.15707 -0.01652,0.0102 -0.03003,0.10935 -0.03003,0.22032 0,0.2412 -0.05072,0.33523 -0.180823,0.33523 -0.125581,0 -0.16225,-0.0883 -0.154633,-0.3723 0.0035,-0.13045 -0.0016,-0.2622 -0.0113,-0.29278 -0.0244,-0.0769 -0.12416,-0.0697 -0.167191,0.0119 -0.01957,0.0371 -0.04414,0.0743 -0.05459,0.0826 -0.02678,0.0212 -0.212233,0.3168 -0.212233,0.33834 0,0.01 -0.05352,0.0983 -0.118931,0.19683 -0.06541,0.0985 -0.147783,0.23843 -0.183047,0.31101 -0.03527,0.0726 -0.104459,0.15513 -0.153767,0.18343 -0.152065,0.0873 -0.243177,0.0669 -0.420196,-0.0941 -0.08804,-0.0801 -0.200534,-0.15888 -0.249985,-0.17512 -0.05623,-0.0185 -0.111275,-0.0701 -0.146944,-0.13784 -0.05478,-0.10402 -0.05496,-0.11268 -0.0045,-0.21896 0.02888,-0.0609 0.09501,-0.14821 0.146944,-0.1941 0.172322,-0.15226 1.070391,-1.0563 1.070391,-1.0775 0,-0.0714 -0.0846,-0.0914 -0.313541,-0.0742 -0.231006,0.0173 -0.24518,0.0147 -0.311904,-0.0572 l -0.0699,-0.0754 0.08989,-0.10068 c 0.0856,-0.0959 0.102551,-0.10161 0.355182,-0.12006 0.452171,-0.033 0.595914,-0.0834 0.850863,-0.29851 0.09084,-0.0766 0.187517,-0.15131 0.21484,-0.16596 0.08996,-0.0482 0.422699,-0.35218 0.699326,-0.63876 0.59238,-0.61371 0.762008,-0.77658 0.996912,-0.95719 0.346274,-0.26623 0.419916,-0.44358 0.253352,-0.61015 l -0.08778,-0.0878 h -0.431374 c -0.390374,0 -0.443229,0.007 -0.556106,0.0676 -0.196603,0.1065 -0.484139,0.31846 -0.51811,0.38193 -0.01703,0.0318 -0.07227,0.0822 -0.122757,0.11199 -0.09708,0.0572 -0.279225,0.36379 -0.315235,0.53055 -0.03482,0.16124 -0.195947,0.43856 -0.301655,0.51918 -0.20844,0.15899 -0.363948,0.001 -0.25091,-0.25395 0.03381,-0.0764 0.07176,-0.1462 0.08434,-0.15504 0.04262,-0.0299 0.204855,-0.3159 0.224993,-0.39655 0.04185,-0.16762 -0.0377,-0.21931 -0.183839,-0.11947 -0.04475,0.0306 -0.158772,0.10694 -0.25338,0.1697 -0.331133,0.21968 -0.624687,0.56538 -0.994419,1.17108 -0.116199,0.19036 -0.377205,0.48262 -0.589134,0.65968 -0.09513,0.0795 -0.154848,0.10607 -0.238226,0.10607 -0.135479,0 -0.183341,-0.043 -0.183341,-0.16449 0,-0.10443 0.04283,-0.17607 0.2338,-0.39105 0.298575,-0.33612 0.516936,-0.60236 0.516936,-0.63027 0,-0.012 0.03758,-0.071 0.0835,-0.13116 0.168884,-0.22132 0.193647,-0.34087 0.07967,-0.38461 -0.02663,-0.0102 -0.1249,0.0165 -0.218394,0.0593 -0.0935,0.0428 -0.203655,0.0872 -0.244802,0.0987 -0.04115,0.0114 -0.158194,0.0593 -0.260107,0.10651 -0.101913,0.0472 -0.199138,0.0858 -0.216056,0.0858 -0.105138,0 -0.560798,0.21515 -0.744266,0.35142 -0.182495,0.13554 -0.233583,0.15901 -0.345339,0.15862 -0.201951,-7.1e-4 -0.219521,-0.0232 -0.211052,-0.26962 0.0071,-0.20552 0.0036,-0.21746 -0.08751,-0.30258 -0.05217,-0.0487 -0.130444,-0.0969 -0.173935,-0.10713 -0.04349,-0.0102 -0.122995,-0.06 -0.176672,-0.11068 -0.120563,-0.11386 -0.12733,-0.22213 -0.02018,-0.3229 0.07389,-0.0694 0.101559,-0.0737 0.608096,-0.0932 0.62212,-0.0238 0.958096,-0.0741 1.137511,-0.17013 0.03569,-0.0191 0.09098,-0.0347 0.12287,-0.0347 0.03189,0 0.09655,-0.0304 0.14369,-0.0674 0.04714,-0.037 0.193991,-0.12317 0.326338,-0.19131 0.447584,-0.23046 0.451087,-0.35754 0.0158,-0.57292 -0.140017,-0.0693 -0.328899,-0.14177 -0.419738,-0.16109 -0.09084,-0.0194 -0.205701,-0.0563 -0.25525,-0.0821 -0.102484,-0.0535 -0.575054,-0.17715 -0.834244,-0.21828 -0.288281,-0.0457 -0.442562,-0.16022 -0.441548,-0.3276 0.0014,-0.23418 0.267775,-0.27044 0.855379,-0.11641 0.198195,0.052 0.464259,0.10021 0.591255,0.10725 0.15003,0.008 0.243347,0.0277 0.266435,0.0556 0.01955,0.0236 0.04719,0.0428 0.06143,0.0428 0.01425,0 0.09029,0.0388 0.168993,0.0863 0.0787,0.0475 0.182327,0.0955 0.230282,0.10684 0.04795,0.0113 0.144982,0.0603 0.215617,0.10889 0.14249,0.098 0.236958,0.11274 0.264431,0.0412 0.0593,-0.15453 -0.38691,-0.49887 -1.096892,-0.84647 -0.14103,-0.0691 -0.248474,-0.14379 -0.278994,-0.19407 -0.04617,-0.0761 -0.04616,-0.0871 8.4e-5,-0.15765 0.102756,-0.15683 0.389147,-0.065 0.95871,0.30722 0.299362,0.19567 0.405525,0.27984 0.691391,0.54819 0.08297,0.0779 0.204592,0.16888 0.270265,0.2022 0.113257,0.0575 0.490079,0.15961 0.748985,0.20302 0.0655,0.011 0.156037,0.0391 0.201208,0.0624 0.140709,0.0728 0.326328,0.0479 0.324189,-0.0434 -6.39e-4,-0.0271 -0.04044,-0.0764 -0.08846,-0.10941 -0.04801,-0.033 -0.260329,-0.1918 -0.471807,-0.35283 -0.372319,-0.2835 -0.896093,-0.57333 -1.465564,-0.81098 -0.0991,-0.0413 -0.23131,-0.0971 -0.293806,-0.12385 -0.0625,-0.0268 -0.132668,-0.0487 -0.155938,-0.0487 -0.02327,0 -0.087,-0.0259 -0.141621,-0.0577 -0.05462,-0.0317 -0.158712,-0.0733 -0.231312,-0.0924 -0.141468,-0.0373 -0.29009,-0.13222 -0.317079,-0.20255 -0.02226,-0.0581 0.06807,-0.20573 0.148112,-0.24221 0.06461,-0.0294 0.238364,0.003 0.40607,0.0758 0.111352,0.0483 0.544179,0.20865 0.630618,0.23358 0.04129,0.0119 0.278207,0.12156 0.526479,0.24366 0.248273,0.12209 0.466443,0.22198 0.484823,0.22198 0.01838,0 0.137395,0.0746 0.26448,0.16578 0.127083,0.0912 0.267015,0.18596 0.310957,0.21063 0.140078,0.0786 0.366804,0.24967 0.53611,0.40441 0.09033,0.0825 0.177946,0.1501 0.194711,0.1501 0.01676,0 0.06906,0.0274 0.116217,0.061 0.04715,0.0336 0.15059,0.0815 0.229857,0.10658 0.379274,0.11983 0.468482,0.13266 0.922684,0.13266 0.606113,0 0.737923,-0.0523 0.737923,-0.29244 0,-0.12456 -0.150734,-0.34272 -0.28779,-0.41652 -0.06469,-0.0348 -0.158147,-0.085 -0.207696,-0.11142 -0.04955,-0.0265 -0.171168,-0.0839 -0.270265,-0.1277 -0.0991,-0.0438 -0.249698,-0.12518 -0.334668,-0.18087 -0.08497,-0.0557 -0.240373,-0.14292 -0.345339,-0.19384 -0.465393,-0.22574 -0.6759,-0.3393 -0.776225,-0.41876 -0.108077,-0.0856 -0.120018,-0.0885 -0.750933,-0.18291 -0.09084,-0.0136 -0.232728,-0.0371 -0.315309,-0.0524 -0.08258,-0.0151 -0.251496,-0.0438 -0.375368,-0.0635 -0.123871,-0.0197 -0.292787,-0.0548 -0.375368,-0.0779 -0.08258,-0.0231 -0.2042,-0.0484 -0.270265,-0.0561 -0.153629,-0.018 -0.471377,-0.0873 -0.510501,-0.11141 -0.01652,-0.0102 -0.122869,-0.049 -0.236339,-0.0862 -0.113471,-0.0373 -0.248603,-0.10588 -0.300295,-0.15253 -0.09069,-0.0818 -0.09237,-0.0877 -0.04803,-0.16858 0.0686,-0.12507 0.167564,-0.16526 0.357468,-0.14515 0.08975,0.01 0.178229,0.0298 0.196617,0.045 0.01839,0.0152 0.107114,0.0412 0.197169,0.0576 0.09006,0.0164 0.21779,0.0434 0.283854,0.0599 0.06607,0.0165 0.187685,0.0455 0.270266,0.0642 0.08258,0.0188 0.217713,0.0533 0.300294,0.0765 0.174276,0.0492 0.347434,0.0851 0.713085,0.1478 0.144453,0.0247 0.320125,0.0651 0.390383,0.0896 0.184613,0.0643 0.343543,0.059 0.381933,-0.0128 0.07197,-0.13448 0.0095,-0.24426 -0.162274,-0.28522 -0.04854,-0.0115 -0.12495,-0.0472 -0.169798,-0.0791 -0.04485,-0.0319 -0.09824,-0.0581 -0.118659,-0.0581 -0.03687,0 -0.07663,-0.0172 -0.509155,-0.21999 -0.685976,-0.32165 -0.865743,-0.40403 -0.960942,-0.44033 -0.05781,-0.0221 -0.13213,-0.0616 -0.165162,-0.0878 -0.07139,-0.0567 -0.282704,-0.16051 -0.686216,-0.33716 -0.178587,-0.0782 -0.324379,-0.16343 -0.36786,-0.21511 -0.09239,-0.1098 -0.09592,-0.26731 -0.008,-0.35527 0.05762,-0.0576 0.08712,-0.0624 0.292786,-0.0477 0.16298,0.0116 0.293443,0.0439 0.453934,0.11232 0.427102,0.18199 1.202575,0.57573 1.314733,0.66756 0.02116,0.0173 0.122514,0.0746 0.225221,0.12729 0.102706,0.0526 0.234036,0.12052 0.291842,0.15076 0.05781,0.0302 0.13213,0.0685 0.165162,0.0849 0.03303,0.0165 0.147896,0.0774 0.255251,0.13533 0.460947,0.24887 0.58239,0.30503 0.659609,0.30503 0.045,0 0.106277,0.027 0.136171,0.0601 0.02989,0.033 0.07143,0.0601 0.09231,0.0601 0.02088,0 0.07856,0.0233 0.128178,0.0517 0.08616,0.0494 0.09303,0.0493 0.152581,-0.005 0.03887,-0.0352 0.06236,-0.0934 0.06236,-0.15449 0,-0.0867 -0.05121,-0.14812 -0.442934,-0.53107 -0.408118,-0.39899 -0.861521,-0.8211 -1.20119,-1.11828 -0.249656,-0.21843 -1.125564,-1.10917 -1.195954,-1.2162 -0.100511,-0.15282 -0.118649,-0.25662 -0.06038,-0.34555 0.07519,-0.11476 0.228195,-0.10178 0.435848,0.037 0.200913,0.13425 0.418519,0.33423 1.24842,1.14732 0.677471,0.66375 0.917303,0.92392 1.217845,1.32114 0.511181,0.6756 0.719923,0.77902 0.671258,0.33257 -0.01989,-0.18245 -0.06039,-0.30242 -0.196284,-0.58136 -0.06324,-0.12981 -0.142583,-0.33438 -0.176315,-0.45459 -0.03374,-0.12022 -0.08378,-0.26357 -0.111211,-0.31856 -0.02744,-0.055 -0.06686,-0.16799 -0.08762,-0.25111 -0.08345,-0.33417 -0.165278,-0.49214 -0.51325,-0.99083 -0.06957,-0.0997 -0.204026,-0.30965 -0.298797,-0.46656 -0.09477,-0.1569 -0.232065,-0.373 -0.305099,-0.48022 -0.14272,-0.20951 -0.298299,-0.52663 -0.32578,-0.66403 -0.0247,-0.12349 0.01074,-0.22955 0.09518,-0.28488 0.143089,-0.0937 0.320341,0.0317 0.570597,0.404 0.208115,0.30958 0.244857,0.3626 0.33823,0.48806 0.279467,0.37552 0.407983,0.45966 0.572311,0.37468 0.04862,-0.0251 0.097,-0.08 0.107514,-0.12184 0.01051,-0.0418 0.03236,-0.0761 0.04856,-0.0761 0.0162,0 0.02946,-0.0216 0.02946,-0.048 0,-0.0264 0.01844,-0.0906 0.04096,-0.14264 0.02253,-0.052 0.06618,-0.15543 0.097,-0.22976 0.07816,-0.18847 0.248646,-0.47967 0.338435,-0.57806 0.08541,-0.0936 0.196178,-0.10693 0.297679,-0.0359 0.05645,0.0395 0.06674,0.0747 0.06674,0.22818 0,0.14866 -0.02105,0.22563 -0.116532,0.42621 -0.172949,0.3633 -0.203784,0.4402 -0.242664,0.60514 -0.01946,0.0826 -0.04946,0.20668 -0.06666,0.27578 -0.0172,0.0691 -0.02333,0.18396 -0.01363,0.25525 0.0097,0.0713 0.02653,0.22068 0.03739,0.33197 0.02561,0.26251 0.06229,0.29428 0.240111,0.20788 0.267698,-0.13005 0.345323,0.0565 0.130982,0.31471 -0.137247,0.16537 -0.164164,0.24009 -0.136549,0.37903 0.01063,0.0535 0.03193,0.17276 0.04733,0.26511 0.0154,0.0923 0.04283,0.2069 0.06096,0.25459 0.01813,0.0477 0.02965,0.15816 0.0256,0.24551 -0.0098,0.21242 0.03967,0.26324 0.138517,0.14218 0.04018,-0.0492 0.096,-0.13677 0.124063,-0.19458 0.02806,-0.0578 0.07372,-0.13888 0.101459,-0.18018 0.105267,-0.15665 0.240188,-0.3956 0.240188,-0.42537 0,-0.017 0.0214,-0.0803 0.04755,-0.14064 0.02615,-0.0603 0.06565,-0.15183 0.08777,-0.2034 0.02212,-0.0515 0.08205,-0.22047 0.133179,-0.37536 0.05113,-0.15489 0.105619,-0.30865 0.121091,-0.34168 0.01547,-0.033 0.04841,-0.11095 0.07319,-0.17315 0.06186,-0.15525 0.160884,-0.19214 0.250423,-0.0933 0.08553,0.0944 0.08646,0.21358 0.004,0.51473 -0.03497,0.1277 -0.07459,0.27272 -0.08805,0.32226 -0.04028,0.1483 -0.170064,0.47853 -0.26155,0.66553 -0.162493,0.33215 -0.250476,0.47696 -0.610962,1.00561 -0.02984,0.0437 -0.06363,0.11808 -0.07508,0.16516 -0.01145,0.0471 -0.03908,0.11225 -0.06139,0.14482 -0.02231,0.0325 -0.04057,0.0873 -0.04057,0.12162 0,0.0343 -0.01237,0.0752 -0.02749,0.0909 -0.04683,0.0486 -0.103195,0.5228 -0.103335,0.86935 -3.07e-4,0.7082 0.09494,0.93092 0.47616,1.11362 0.150927,0.0724 0.254941,0.0862 0.353439,0.0473 0.07149,-0.0283 0.556963,-0.57019 0.580869,-0.64841 0.01043,-0.0341 0.03405,-0.0808 0.05248,-0.1038 0.112091,-0.13958 0.144966,-0.68774 0.05332,-0.88919 -0.03005,-0.0661 -0.07804,-0.13948 -0.106639,-0.16315 -0.08791,-0.0727 -0.177223,-0.28074 -0.177486,-0.41331 -4.49e-4,-0.22061 0.118874,-0.2848 0.254147,-0.13673 0.0933,0.10212 0.266114,0.37615 0.266114,0.42198 0,0.0292 0.09017,0.096 0.12946,0.096 0.04044,0 0.141504,-0.32237 0.171333,-0.54652 0.03148,-0.23652 0.02937,-0.27083 -0.02388,-0.38945 -0.03212,-0.0716 -0.114318,-0.19296 -0.182669,-0.26982 -0.10234,-0.11508 -0.124273,-0.16127 -0.124273,-0.2617 0,-0.13898 0.06849,-0.19824 0.192996,-0.16699 0.07636,0.0192 0.167358,0.1292 0.167358,0.20237 0,0.0665 0.109109,0.14652 0.185208,0.13575 0.065,-0.009 0.06939,-0.0218 0.06094,-0.17509 -0.005,-0.0908 -0.02393,-0.2057 -0.04205,-0.25525 -0.04165,-0.11391 -0.110367,-0.27976 -0.153231,-0.36982 -0.06835,-0.1436 0.108041,-0.24039 0.258469,-0.14183 0.07146,0.0468 0.171126,0.0363 0.171126,-0.0181 0,-0.0153 -0.03378,-0.0945 -0.07507,-0.17597 -0.09217,-0.18188 -0.09296,-0.21296 -0.0074,-0.29329 0.06412,-0.0602 0.07096,-0.0609 0.131681,-0.0127 0.03523,0.0279 0.09884,0.10707 0.141362,0.17589 0.105061,0.17 0.128914,0.17803 0.18891,0.0635 0.05909,-0.11275 0.08929,-0.25617 0.134555,-0.6391 0.06245,-0.52837 0.160779,-0.73573 0.348868,-0.73573 0.07609,0 0.248234,0.15475 0.248234,0.22316 0,0.0504 0.128832,0.16722 0.184385,0.16722 0.06393,0 0.175968,0.1272 0.175968,0.19978 0,0.0335 -0.06083,0.18244 -0.135164,0.33116 -0.281613,0.56338 -0.125856,0.75767 0.403875,0.50381 0.252647,-0.12108 0.457469,-0.1616 0.52665,-0.10418 0.06659,0.0553 0.05433,0.21348 -0.02329,0.30064 -0.03677,0.0413 -0.168101,0.12765 -0.291839,0.19189 -0.123738,0.0643 -0.303917,0.17912 -0.400397,0.25526 -0.09648,0.0761 -0.204585,0.15457 -0.240235,0.17431 -0.114278,0.0633 -0.346955,0.3212 -0.432391,0.47932 -0.121061,0.22406 -0.339586,0.55084 -0.368356,0.55084 -0.04087,0 -0.270058,0.36237 -0.270058,0.42699 0,0.0515 0.01553,0.0579 0.112611,0.0459 0.157046,-0.0194 0.51676,-0.16763 1.006842,-0.41493 0.474486,-0.23945 0.561602,-0.29277 1.035221,-0.63371 0.291136,-0.20958 0.415281,-0.25996 0.512434,-0.20796 0.0816,0.0437 0.09548,0.12753 0.03892,0.23516 -0.04674,0.089 -0.389924,0.42137 -0.543906,0.52686 -0.04129,0.0283 -0.149398,0.10483 -0.240236,0.17011 -0.259227,0.18625 -0.826725,0.44984 -1.566869,0.72776 -0.04423,0.0166 -0.103751,0.0559 -0.132279,0.0875 -0.02853,0.0315 -0.07483,0.0573 -0.102889,0.0573 -0.02806,0 -0.08389,0.0304 -0.12407,0.0676 -0.07535,0.0697 -0.161462,0.133 -0.357435,0.26276 -0.209036,0.13841 -0.539227,0.58999 -0.539227,0.73745 0,0.025 -0.02131,0.078 -0.04736,0.11771 -0.07084,0.10812 -0.04387,0.20282 0.07461,0.26196 0.07452,0.0372 0.117567,0.0429 0.158435,0.0211 0.03086,-0.0165 0.106062,-0.0365 0.167112,-0.0443 0.06105,-0.008 0.124212,-0.0274 0.140359,-0.0436 0.01615,-0.0161 0.05381,-0.0293 0.08371,-0.0293 0.02989,0 0.07749,-0.027 0.105771,-0.0601 0.02828,-0.033 0.08124,-0.0601 0.117672,-0.0601 0.03644,0 0.150099,-0.0499 0.252585,-0.111 0.102486,-0.061 0.248722,-0.12125 0.324969,-0.13379 0.516974,-0.085 0.583997,-0.10812 1.099575,-0.3794 0.06607,-0.0347 0.201197,-0.0991 0.300294,-0.14289 0.190895,-0.0844 0.492381,-0.29353 0.766224,-0.53142 0.0911,-0.0791 0.239769,-0.18083 0.330378,-0.22598 0.09061,-0.0452 0.205257,-0.11036 0.254778,-0.14492 0.04951,-0.0346 0.130573,-0.0836 0.180122,-0.10905 0.04955,-0.0254 0.170262,-0.0884 0.268253,-0.13988 0.108799,-0.0572 0.222624,-0.0936 0.292361,-0.0936 0.09922,0 0.124227,0.0152 0.190725,0.11564 0.0664,0.10034 0.07704,0.15067 0.08039,0.38022 0.0037,0.25265 2.1e-4,0.26773 -0.07753,0.33458 -0.04477,0.0385 -0.117912,0.0774 -0.162547,0.0863 -0.302623,0.0608 -0.787469,0.28087 -1.054164,0.47845 -0.114776,0.085 -0.274504,0.2661 -0.290321,0.32912 -0.0213,0.0849 0.09863,0.291 0.212795,0.3658 0.09491,0.0622 0.425903,0.13598 1.140623,0.25428 0.474312,0.0785 0.645633,0.17235 0.645633,0.3536 0,0.15226 -0.102741,0.23053 -0.355213,0.27061 -0.121044,0.0192 -0.233196,0.0268 -0.249227,0.017 -0.01604,-0.01 -0.15348,-0.0374 -0.305436,-0.0611 -0.492499,-0.0768 -0.574338,-0.0948 -0.721711,-0.1588 -0.07982,-0.0346 -0.171305,-0.063 -0.203297,-0.063 -0.03199,0 -0.142354,-0.0353 -0.245253,-0.0785 -0.173439,-0.0728 -0.341613,-0.10342 -0.825212,-0.1505 -0.178372,-0.0173 -0.187684,-0.015 -0.187684,0.0471 0,0.042 0.07778,0.13976 0.217713,0.27351 0.119742,0.11445 0.22681,0.20821 0.23793,0.20835 0.01112,1.5e-4 0.06127,0.0348 0.111433,0.077 0.08253,0.0695 0.617138,0.34679 0.919382,0.47695 0.395922,0.17052 0.520481,0.24046 0.566291,0.31801 0.06278,0.10629 0.06331,0.10253 -0.02713,0.19296 -0.09752,0.0975 -0.136002,0.0962 -0.488337,-0.0172 -0.446181,-0.14358 -1.163251,-0.50992 -1.395287,-0.71282 -0.73444,-0.6422 -0.826932,-0.70401 -1.10294,-0.73699 -0.07432,-0.009 -0.190532,-0.0245 -0.258243,-0.0348 -0.118592,-0.018 -0.267714,0.0165 -0.469971,0.10885 -0.09451,0.0431 -0.102074,0.0697 -0.03539,0.12447 0.02596,0.0213 0.07325,0.0624 0.105103,0.0913 0.03185,0.0289 0.09733,0.0526 0.145505,0.0526 0.154058,0 0.419578,0.14735 0.66809,0.37075 0.115163,0.10353 0.124526,0.12551 0.118723,0.27875 -0.0028,0.0734 -0.02233,0.10173 -0.08948,0.12954 -0.07484,0.031 -0.09918,0.0266 -0.188642,-0.0341 -0.05649,-0.0383 -0.142824,-0.10776 -0.191846,-0.15427 -0.04902,-0.0465 -0.143184,-0.12372 -0.209248,-0.17158 -0.06607,-0.0479 -0.173808,-0.14146 -0.23943,-0.208 -0.09874,-0.10013 -0.139456,-0.12099 -0.236172,-0.12099 -0.256393,0 -0.620473,0.30899 -0.620473,0.5266 0,0.0809 0.03142,0.12663 0.18412,0.26801 0.191492,0.17728 0.641708,0.42418 0.929209,0.50955 0.08158,0.0242 0.178265,0.065 0.214857,0.0906 0.03659,0.0257 0.0918,0.0466 0.12269,0.0466 0.121163,0 0.652621,0.20335 0.98454,0.37671 0.241027,0.12589 0.462273,0.16827 0.942898,0.1806 0.247743,0.006 0.518008,0.0261 0.600589,0.0439 0.08258,0.0178 0.201595,0.0435 0.264475,0.0572 0.132928,0.0289 0.538073,0.22352 0.605381,0.29082 0.02545,0.0254 0.04604,0.0978 0.04604,0.16184 0,0.13605 -0.105153,0.24027 -0.242423,0.24027 -0.121763,0 -0.451546,-0.0808 -0.613816,-0.15032 -0.203164,-0.0871 -0.693351,-0.0865 -0.804517,7.5e-4 -0.0876,0.0689 -0.17104,0.21944 -0.17104,0.30857 0,0.0845 0.189396,0.36197 0.403811,0.59157 0.260854,0.27934 0.406984,0.50336 0.406984,0.6239 0,0.0881 -0.125871,0.1869 -0.238003,0.1869 -0.110076,0 -0.298096,-0.1397 -0.550284,-0.40885 -0.155002,-0.16543 -0.382862,-0.47677 -0.382862,-0.52315 0,-0.0157 -0.02759,-0.0455 -0.06131,-0.0662 -0.03372,-0.0208 -0.09702,-0.0985 -0.140677,-0.17272 -0.141846,-0.24112 -0.380976,-0.45789 -0.740561,-0.67128 -0.05141,-0.0305 -0.167794,-0.119 -0.258634,-0.19666 -0.229305,-0.19602 -0.316517,-0.25379 -0.614621,-0.40716 -0.142983,-0.0736 -0.342937,-0.19039 -0.444343,-0.25962 -0.223335,-0.15244 -0.398028,-0.186 -0.482487,-0.0927 -0.04595,0.0508 -0.05281,0.0988 -0.0423,0.29586 0.0128,0.23996 0.04534,0.34977 0.204634,0.69048 0.0957,0.2047 0.282434,0.51569 0.339714,0.56577 0.04883,0.0427 0.228605,0.27553 0.228605,0.29607 0,0.0536 0.198893,0.3163 0.335992,0.44386 0.08772,0.0816 0.206791,0.19271 0.264597,0.24687 0.05781,0.0541 0.192939,0.16421 0.300295,0.24455 0.685735,0.51314 1.100441,0.99141 1.000029,1.15329 -0.05144,0.083 -0.183256,0.1308 -0.273384,0.0993 -0.07917,-0.0277 -0.121193,-0.0598 -0.44148,-0.33678 -0.196939,-0.17032 -0.459304,-0.36035 -0.497529,-0.36035 -0.01604,0 -0.084,0.0363 -0.15102,0.0806 l -0.12186,0.0806 0.01399,0.1671 c 0.01509,0.18013 0.0571,0.37554 0.134211,0.62424 0.04482,0.14455 0.04482,0.16485 1.3e-5,0.2588 -0.03331,0.0699 -0.07483,0.10696 -0.131881,0.11787 -0.117088,0.0224 -0.225197,-0.10261 -0.31053,-0.35903 -0.03743,-0.11249 -0.08008,-0.21736 -0.09476,-0.23305 -0.01468,-0.0157 -0.02669,-0.0725 -0.02669,-0.12614 0,-0.11778 -0.192444,-0.6618 -0.260846,-0.73738 -0.0279,-0.0308 -0.09064,-0.0539 -0.146682,-0.0539 -0.07839,0 -0.116928,0.024 -0.193196,0.12029 -0.08827,0.11144 -0.09412,0.13297 -0.07957,0.29279 0.0086,0.0949 0.0287,0.24681 0.04459,0.33765 0.08538,0.48819 0.08133,0.60378 -0.02312,0.65968 -0.03164,0.0169 -0.0794,0.0224 -0.106141,0.0121 -0.07387,-0.0283 -0.18557,-0.27356 -0.257258,-0.56477 -0.06985,-0.28373 -0.06977,-0.46861 4.98e-4,-1.21813 0.04854,-0.51772 0.0077,-0.97934 -0.107275,-1.21111 -0.02319,-0.0468 -0.04296,-0.16163 -0.04395,-0.25526 -0.0048,-0.45329 -0.213671,-1.14949 -0.390401,-1.30106 -0.114795,-0.0984 -0.252528,0.011 -0.300378,0.23868 -0.01288,0.0613 -0.04581,0.17211 -0.07318,0.24632 -0.02738,0.0742 -0.06308,0.20935 -0.07933,0.30029 -0.03122,0.17472 -0.03645,0.19413 -0.164056,0.60869 -0.07446,0.24191 -0.07941,0.28912 -0.06131,0.58495 0.02339,0.3823 0.07663,0.80977 0.111295,0.89361 0.02612,0.0631 0.03668,0.13205 0.08749,0.57056 0.01722,0.14864 0.04388,0.29729 0.05924,0.33032 0.01536,0.033 0.03474,0.10736 0.04305,0.16517 0.0083,0.0578 0.03653,0.19293 0.06269,0.30029 0.08716,0.35761 0.105735,0.52231 0.10591,0.93916 l 1.8e-4,0.41365 -0.07703,0.0293 c -0.09783,0.0372 -0.193622,0.036 -0.26109,-0.003 z"
       id="path97"
       inkscape:connector-curvature="0" />
    <text
       xml:space="preserve"
       style="font-style:normal;font-variant:normal;font-weight:normal;font-stretch:normal;font-size:10.1586771px;line-height:1.25;font-family:Helvetica;-inkscape-font-specification:'Helvetica, Normal';font-variant-ligatures:normal;font-variant-caps:normal;font-variant-numeric:normal;font-feature-settings:normal;text-align:start;letter-spacing:0px;word-spacing:0px;writing-mode:lr-tb;text-anchor:start;fill:#2c3e50;fill-opacity:1;stroke:none;stroke-width:0.25396824"
       x="25.222292"
       y="150.51326"
       id="text101"><tspan
         sodipodi:role="line"
         id="tspan99"
         x="25.222292"
         y="150.51326"
         style="font-style:normal;font-variant:normal;font-weight:normal;font-stretch:normal;font-size:10.1586771px;font-family:Helvetica;-inkscape-font-specification:'Helvetica, Normal';font-variant-ligatures:normal;font-variant-caps:normal;font-variant-numeric:normal;font-feature-settings:normal;text-align:start;writing-mode:lr-tb;text-anchor:start;fill:#2c3e50;fill-opacity:1;stroke-width:0.25396824">Hancock Lab</tspan></text>
  </g>
</svg>
