<?xml version="1.0" encoding="UTF-8" standalone="no"?>
<svg
   xmlns:dc="http://purl.org/dc/elements/1.1/"
   xmlns:cc="http://creativecommons.org/ns#"
   xmlns:rdf="http://www.w3.org/1999/02/22-rdf-syntax-ns#"
   xmlns:svg="http://www.w3.org/2000/svg"
   xmlns="http://www.w3.org/2000/svg"
   xmlns:sodipodi="http://sodipodi.sourceforge.net/DTD/sodipodi-0.dtd"
   xmlns:inkscape="http://www.inkscape.org/namespaces/inkscape"
   id="logo-dark"
   data-name="logo-dark"
   viewBox="0 0 703.06284 808.06659"
   version="1.1"
   sodipodi:docname="logo_light_hex.svg"
   width="7.3235712in"
   height="8.4173603in"
   inkscape:version="0.92.4 (f8dce91, 2019-08-02)">
  <metadata
     id="metadata11">
    <rdf:RDF>
      <cc:Work
         rdf:about="">
        <dc:format>image/svg+xml</dc:format>
        <dc:type
           rdf:resource="http://purl.org/dc/dcmitype/StillImage" />
        <dc:title></dc:title>
      </cc:Work>
    </rdf:RDF>
  </metadata>
  <sodipodi:namedview
     pagecolor="#ffffff"
     bordercolor="#666666"
     borderopacity="1"
     objecttolerance="10"
     gridtolerance="10"
     guidetolerance="10"
     inkscape:pageopacity="1"
     inkscape:pageshadow="2"
     inkscape:window-width="1869"
     inkscape:window-height="1025"
     id="namedview9"
     showgrid="false"
     inkscape:zoom="0.63940508"
     inkscape:cx="474.30369"
     inkscape:cy="420.80192"
     inkscape:window-x="1971"
     inkscape:window-y="27"
     inkscape:window-maximized="1"
     inkscape:current-layer="logo-dark"
     inkscape:pagecheckerboard="false"
     inkscape:snap-bbox="true"
     inkscape:snap-bbox-edge-midpoints="true"
     units="in" />
  <defs
     id="defs4">
    <style
       id="style2">  
  .arch-path {
    fill: #323232;
  }
</style>
  </defs>
  <path
     sodipodi:type="star"
     style="opacity:1;fill:#666666;fill-opacity:1;stroke:#1a1a1a;stroke-width:0.89318466;stroke-linecap:butt;stroke-miterlimit:4;stroke-dasharray:none;stroke-dashoffset:0;stroke-opacity:1"
     id="path818"
     sodipodi:sides="6"
     sodipodi:cx="-51.023994"
     sodipodi:cy="22.590691"
     sodipodi:r1="35.644875"
     sodipodi:r2="30.869368"
     sodipodi:arg1="0.52254746"
     sodipodi:arg2="1.0461462"
     inkscape:flatsided="true"
     inkscape:rounded="0"
     inkscape:randomized="0"
     d="M -20.135908,40.380665 -50.98652,58.235545 -81.874607,40.445571 -81.912081,4.8007166 -51.061468,-13.054164 -20.173382,4.7358097 Z"
     transform="matrix(11.218509,0,0,11.173322,923.94456,151.62024)" />
  <g
     id="g835"
     transform="matrix(8.1864393,0,0,8.1553991,675.62284,327.41468)"
     style="stroke-width:0.12238546">
    <path
       style="fill:#e6e6e6;stroke-width:0.12238544"
       inkscape:connector-curvature="0"
       id="path6"
       d="m -71.317131,14.063788 v -24.666585 c 0,-1.032632 -0.349763,-2.115231 -1.265807,-2.76479 -0.799458,-0.566282 -2.081921,-0.74949 -3.264451,-0.74949 l -0.183209,-1.782124 h 72.0011126 l -0.1832069,1.79878 c -1.1658761,0 -2.4483344,0.183208 -3.2644504,0.74949 -0.916044,0.649559 -1.265808,1.732158 -1.265808,2.76479 v 0 l 0.01665,24.733204 v -0.08328 c 0,1.032631 0.349759,2.115231 1.265801,2.764791 0.799462,0.56628 2.0819255,0.749487 3.2644512,0.749487 l 0.1665708,1.76547 H -20.818078 l 0.166554,-1.782123 c 1.182529,0 2.481649,-0.183208 3.297761,-0.749486 0.916042,-0.632909 1.265807,-1.73216 1.265807,-2.764791 h -0.01671 V -3.391028 c 0,-4.979951 -4.530257,-9.010547 -10.14311,-9.010547 v -0.01665 c -5.596202,0 -10.143117,4.030596 -10.143117,9.027204 V 14.06379 c 0,1.032632 0.349765,2.115232 1.265808,2.764785 0.799458,0.566285 2.081919,0.749493 3.264453,0.749493 l 0.199864,1.798779 H -48.4327 l 0.166553,-1.782123 c 1.18253,0 2.48165,-0.183208 3.297761,-0.749492 0.916044,-0.632898 1.265808,-1.732154 1.265808,-2.764791 0,0 0,-17.454811 0,-17.454811 0,-4.979951 -4.53026,-9.010548 -10.143113,-9.010548 -5.612857,0 -10.143113,4.030596 -10.143113,9.027204 V 14.06379 c 0,1.032632 0.349761,2.115232 1.265807,2.764792 0.799457,0.566278 2.081919,0.749486 3.264449,0.749486 l 0.199865,1.798779 h -16.788576 l 0.166554,-1.782123 c 1.182531,0 2.481649,-0.183208 3.297762,-0.749492 0.916044,-0.632898 1.265807,-1.732154 1.265807,-2.764791"
       class="arch-path" />
    <text
       id="text830"
       y="32.35659"
       x="-79.281433"
       style="font-style:normal;font-variant:normal;font-weight:bold;font-stretch:normal;font-size:11.81910515px;line-height:1.25;font-family:'DejaVu Serif';-inkscape-font-specification:'DejaVu Serif, Bold';font-variant-ligatures:normal;font-variant-caps:normal;font-variant-numeric:normal;font-feature-settings:normal;text-align:start;letter-spacing:0px;word-spacing:0px;writing-mode:lr-tb;text-anchor:start;fill:#e6e6e6;fill-opacity:1;stroke:none;stroke-width:0.12238546"
       xml:space="preserve"><tspan
         style="font-style:normal;font-variant:normal;font-weight:bold;font-stretch:normal;font-size:11.81910515px;font-family:'DejaVu Serif';-inkscape-font-specification:'DejaVu Serif, Bold';font-variant-ligatures:normal;font-variant-caps:normal;font-variant-numeric:normal;font-feature-settings:normal;text-align:start;writing-mode:lr-tb;text-anchor:start;fill:#e6e6e6;stroke-width:0.12238546"
         y="32.35659"
         x="-79.281433"
         id="tspan828"
         sodipodi:role="line">MetaBridge</tspan></text>
  </g>
</svg>
